{
  "accessors": [
    {
      "bufferView": 2,
      "componentType": 5126,
      "count": 65532,
      "max": [
        42.233554840087891,
        40.28167724609375,
        30.717157363891602
      ],
      "min": [
        -11.809867858886719,
        -40.712413787841797,
        -21.491090774536133
      ],
      "type": "VEC3"
    },
    {
      "bufferView": 2,
      "byteOffset": 786384,
      "componentType": 5126,
      "count": 65532,
      "max": [
        0.99999099969863892,
        0.99998551607131958,
        0.99995887279510498
      ],
      "min": [
        -0.99996912479400635,
        -0.99999898672103882,
        -0.9999840259552002
      ],
      "type": "VEC3"
    },
    {
      "bufferView": 3,
      "componentType": 5126,
      "count": 65532,
      "max": [
        0.9999992847442627,
        0.99999934434890747,
        0.9998326301574707,
        1
      ],
      "min": [
        -0.99998605251312256,
        -0.99999839067459106,
        -0.9999384880065918,
        -1
      ],
      "type": "VEC4"
    },
    {
      "bufferView": 1,
      "componentType": 5126,
      "count": 65532,
      "max": [
        0.99868899583816528,
        0.99985098838806152
      ],
      "min": [
        7.7999997301958501e-05,
        3.600000127335079e-05
      ],
      "type": "VEC2"
    },
    {
      "bufferView": 0,
      "componentType": 5125,
      "count": 362277,
      "max": [
        65531
      ],
      "min": [
        0
      ],
      "type": "SCALAR"
    },
    {
      "bufferView": 2,
      "byteOffset": 1572768,
      "componentType": 5126,
      "count": 65532,
      "max": [
        28.853954315185547,
        40.068565368652344,
        19.846950531005859
      ],
      "min": [
        -22.068464279174805,
        -41.205818176269531,
        -27.116535186767578
      ],
      "type": "VEC3"
    },
    {
      "bufferView": 2,
      "byteOffset": 2359152,
      "componentType": 5126,
      "count": 65532,
      "max": [
        0.99991720914840698,
        0.99994909763336182,
        0.99999785423278809
      ],
      "min": [
        -0.99994909763336182,
        -0.99999785423278809,
        -0.99994659423828125
      ],
      "type": "VEC3"
    },
    {
      "bufferView": 3,
      "byteOffset": 1048512,
      "componentType": 5126,
      "count": 65532,
      "max": [
        0.99999803304672241,
        0.99999552965164185,
        0.99991458654403687,
        1
      ],
      "min": [
        -0.99989396333694458,
        -0.99999994039535522,
        -0.99995988607406616,
        -1
      ],
      "type": "VEC4"
    },
    {
      "bufferView": 1,
      "byteOffset": 524256,
      "componentType": 5126,
      "count": 65532,
      "max": [
        0.99101400375366211,
        0.99577200412750244
      ],
      "min": [
        0.0012550000101327896,
        0.019896000623703003
      ],
      "type": "VEC2"
    },
    {
      "bufferView": 0,
      "byteOffset": 1449108,
      "componentType": 5125,
      "count": 355008,
      "max": [
        65531
      ],
      "min": [
        0
      ],
      "type": "SCALAR"
    },
    {
      "bufferView": 2,
      "byteOffset": 3145536,
      "componentType": 5126,
      "count": 14116,
      "max": [
        18.244237899780273,
        40.390220642089844,
        14.001303672790527
      ],
      "min": [
        -22.705337524414062,
        -40.708061218261719,
        -26.078643798828125
      ],
      "type": "VEC3"
    },
    {
      "bufferView": 2,
      "byteOffset": 3314928,
      "componentType": 5126,
      "count": 14116,
      "max": [
        0.99969190359115601,
        0.99991810321807861,
        0.99971300363540649
      ],
      "min": [
        -0.99986988306045532,
        -0.99998378753662109,
        -0.99999535083770752
      ],
      "type": "VEC3"
    },
    {
      "bufferView": 3,
      "byteOffset": 2097024,
      "componentType": 5126,
      "count": 14116,
      "max": [
        0.9997251033782959,
        0.99994230270385742,
        0.99693530797958374,
        1
      ],
      "min": [
        -0.99983257055282593,
        -0.99999970197677612,
        -0.99983930587768555,
        -1
      ],
      "type": "VEC4"
    },
    {
      "bufferView": 1,
      "byteOffset": 1048512,
      "componentType": 5126,
      "count": 14116,
      "max": [
        0.97906398773193359,
        0.99875801801681519
      ],
      "min": [
        0.0058019999414682388,
        0.0082419998943805695
      ],
      "type": "VEC2"
    },
    {
      "bufferView": 0,
      "byteOffset": 2869140,
      "componentType": 5125,
      "count": 58194,
      "max": [
        14115
      ],
      "min": [
        0
      ],
      "type": "SCALAR"
    }
  ],
  "asset": {
    "extras": {
      "author": "GLT Scan (https://sketchfab.com/glt)",
      "license": "CC-BY-4.0 (http://creativecommons.org/licenses/by/4.0/)",
      "source": "https://sketchfab.com/models/94ed02fc68b04804b55f33057ef2bab8",
      "title": "Pécs - 25 story building"
    },
    "generator": "Sketchfab-3.18.2",
    "version": "2.0"
  },
  "bufferViews": [
    {
      "buffer": 0,
      "byteLength": 3101916,
      "byteOffset": 0,
      "name": "floatBufferViews",
      "target": 34963
    },
    {
      "buffer": 0,
      "byteLength": 1161440,
      "byteOffset": 3101916,
      "byteStride": 8,
      "name": "floatBufferViews",
      "target": 34962
    },
    {
      "buffer": 0,
      "byteLength": 3484320,
      "byteOffset": 4263356,
      "byteStride": 12,
      "name": "floatBufferViews",
      "target": 34962
    },
    {
      "buffer": 0,
      "byteLength": 2322880,
      "byteOffset": 7747676,
      "byteStride": 16,
      "name": "floatBufferViews",
      "target": 34962
    }
  ],
  "buffers": [
    {
      "byteLength": 10070556,
      "uri": "scene.bin"
    }
  ],
  "images": [
    {
      "uri": "textures/Material_0_baseColor.jpeg"
    }
  ],
  "materials": [
    {
      "doubleSided": true,
      "emissiveFactor": [
        0,
        0,
        0
      ],
      "name": "Material_0",
      "pbrMetallicRoughness": {
        "baseColorFactor": [
          1,
          1,
          1,
          1
        ],
        "baseColorTexture": {
          "index": 0,
          "texCoord": 0
        },
        "metallicFactor": 0,
        "roughnessFactor": 0.59999999999999998
      }
    }
  ],
  "meshes": [
    {
      "primitives": [
        {
          "attributes": {
            "NORMAL": 1,
            "POSITION": 0,
            "TANGENT": 2,
            "TEXCOORD_0": 3
          },
          "indices": 4,
          "material": 0,
          "mode": 4
        }
      ]
    },
    {
      "primitives": [
        {
          "attributes": {
            "NORMAL": 6,
            "POSITION": 5,
            "TANGENT": 7,
            "TEXCOORD_0": 8
          },
          "indices": 9,
          "material": 0,
          "mode": 4
        }
      ]
    },
    {
      "primitives": [
        {
          "attributes": {
            "NORMAL": 11,
            "POSITION": 10,
            "TANGENT": 12,
            "TEXCOORD_0": 13
          },
          "indices": 14,
          "material": 0,
          "mode": 4
        }
      ]
    }
  ],
  "nodes": [
    {
      "children": [
        1
      ],
      "name": "RootNode (gltf orientation matrix)",
      "rotation": [
        -0.70710678118654746,
        -0,
        -0,
        0.70710678118654757
      ]
    },
    {
      "children": [
        2
      ],
      "matrix": [
        -1,
        0,
        0,
        0,
        0,
        0,
        -1,
        0,
        0,
        -1,
        0,
        0,
        19.52815055847168,
        1.6602001190185547,
        1.6602001190185547,
        1
      ],
      "name": "RootNode (model correction matrix)"
    },
    {
      "children": [
        3,
        4,
        5
      ],
      "name": "mesh-exported-exported.obj.cleaner"
    },
    {
      "mesh": 0,
      "name": ""
    },
    {
      "mesh": 1,
      "name": ""
    },
    {
      "mesh": 2,
      "name": ""
    }
  ],
  "samplers": [
    {
      "magFilter": 9729,
      "minFilter": 9987,
      "wrapS": 10497,
      "wrapT": 10497
    }
  ],
  "scene": 0,
  "scenes": [
    {
      "name": "OSG_Scene",
      "nodes": [
        0
      ]
    }
  ],
  "textures": [
    {
      "sampler": 0,
      "source": 0
    }
  ]
}

